# xmcd
#
# Track frame offsets:
#	150
#	13350
#	33398
#	56286
#	82932
#	96844
#	112687
#
# Disc length: 1764 seconds
#
# Revision: 0
# Processed by: cddbd v1.5.2PL0 Copyright (c) Steve Scherf et al.
# Submitted via: dBpowerAMP V4.0
#
DISCID=4706e207
DTITLE=Bad Boyz Boogie - Bad Boyz Boogie and Friends
DYEAR=2014
DGENRE=Blues
TTITLE0=I'm On My Knees
TTITLE1=Horse Shoe Blues (feat. Breen Leboeuf)
TTITLE2=Wake Up
TTITLE3=You and I (feat. Lulu Hughes)
TTITLE4=Going Nowhere
TTITLE5=Gimme a Smile
TTITLE6=Rack 'em Up (feat. Guy Côté)
EXTD=Bad Boyz Boogie and Friends album from 2014.
EXTT0=
EXTT1=
EXTT2=
EXTT3=
EXTT4=
EXTT5=
EXTT6=
PLAYORDER=
